<svg width="107" height="40" viewBox="0 0 107 40" fill="none" xmlns="http://www.w3.org/2000/svg">
<path fill-rule="evenodd" clip-rule="evenodd" d="M66.9064 18.8889C68.6743 18.8889 69.6086 19.385 70.1117 20.5521C72.4976 26.0232 74.898 31.4797 77.2695 36.9654C77.7726 38.1471 77.3845 39.2559 76.3928 39.752C75.286 40.3064 74.0643 39.9125 73.475 38.7599C73.0007 37.8262 72.6845 36.8049 72.1958 35.8858C72.0233 35.5648 71.5346 35.2146 71.1896 35.2C68.6887 35.1417 66.1877 35.1855 63.6868 35.1563C63.0975 35.1417 62.7813 35.3313 62.5657 35.9003C62.2351 36.8195 61.847 37.724 61.4302 38.5994C60.8696 39.8103 59.7198 40.2772 58.5987 39.7958C57.5207 39.3289 57.1038 38.2055 57.6356 36.9654C60.0072 31.4943 62.4076 26.0232 64.8079 20.5667C65.3254 19.3996 66.2309 18.8889 66.9064 18.8889ZM70.2698 31.2025C69.3068 28.8828 68.4156 26.7235 67.3951 24.2725C66.3746 26.7527 65.4835 28.9265 64.5348 31.2025C66.504 31.2025 68.2719 31.2025 70.2698 31.2025Z" fill="black"/>
<path fill-rule="evenodd" clip-rule="evenodd" d="M98.7014 18.8974C100.792 18.8683 102.727 19.4064 104.535 20.4825C105.722 21.195 106.131 22.4311 105.524 23.4927C104.945 24.4961 103.772 24.6706 102.544 24.1034C101.399 23.5799 100.199 23.2018 98.998 22.8092C98.6449 22.6929 98.2211 22.751 97.8539 22.8092C96.9075 22.9546 96.0458 23.2745 95.8622 24.4088C95.6786 25.5722 96.3848 26.1539 97.303 26.5029C98.3907 26.91 99.5207 27.1863 100.622 27.5644C101.583 27.8843 102.558 28.2043 103.476 28.6405C105.538 29.6148 106.541 31.3017 106.499 33.643C106.456 36.0569 105.566 37.9765 103.391 39.009C99.9021 40.6668 96.4837 40.0851 93.136 38.4418C92.6981 38.2237 92.2884 37.9329 91.8788 37.6566C90.8759 36.944 90.5934 35.7225 91.1867 34.7336C91.7517 33.7884 93.0088 33.5993 94.0824 34.1519C95.3819 34.8209 96.7097 35.5189 98.094 35.9261C98.9133 36.1733 99.9021 35.9697 100.778 35.8097C101.527 35.6643 102.092 35.1263 102.176 34.2537C102.275 33.3231 101.823 32.6832 101.046 32.3778C99.8738 31.9125 98.6449 31.5635 97.4584 31.1563C96.399 30.7927 95.3113 30.4583 94.2943 29.9929C90.5086 28.2915 90.7629 22.1984 93.9835 20.148C95.4384 19.2173 97.0063 18.8247 98.7014 18.8974Z" fill="black"/>
<path fill-rule="evenodd" clip-rule="evenodd" d="M85.2871 29.4819C85.2871 32.1592 85.2871 34.8218 85.2871 37.4991C85.2871 39.0878 84.4401 40.0146 83.0383 39.9999C81.6802 39.9851 80.8479 39.1025 80.8479 37.5432C80.8333 32.1592 80.8333 26.7899 80.8479 21.4059C80.8479 19.876 81.6948 18.9198 82.9945 18.8904C84.3817 18.8463 85.2725 19.773 85.2871 21.3618C85.3163 24.0685 85.2871 26.7752 85.2871 29.4819Z" fill="black"/>
<path d="M0.5 3.64067C0.5 3.64067 17.7476 16.0966 36.8834 11.1488C56.0333 6.21528 70.1244 -1.94006 76.4232 0.418807C73.2667 1.91467 65.8266 6.86253 58.6119 13.522C51.3973 20.1815 28.0482 31.3429 0.5 3.64067Z" fill="url(#paint0_linear_4_2465)"/>
<path d="M10.5892 13.7375C10.5892 13.7375 29.725 32.2777 51.8904 19.3183C50.0022 22.0367 32.4728 45.5103 10.5892 13.7375Z" fill="url(#paint1_linear_4_2465)"/>
<defs>
<linearGradient id="paint0_linear_4_2465" x1="31.2199" y1="8.88641" x2="67.0581" y2="-4.68129" gradientUnits="userSpaceOnUse">
<stop offset="0" stop-color="#CADE1F"/>
<stop offset="1" stop-color="#6FA42E"/>
</linearGradient>
<linearGradient id="paint1_linear_4_2465" x1="35.1647" y1="22.6121" x2="12.6718" y2="15.1633" gradientUnits="userSpaceOnUse">
<stop offset="0" stop-color="#CADE1F"/>
<stop offset="1" stop-color="#6FA42E"/>
</linearGradient>
</defs>
</svg>
