<svg width="56" height="56" viewBox="0 0 56 56" fill="none" xmlns="http://www.w3.org/2000/svg">
<path fill-rule="evenodd" clip-rule="evenodd" d="M28 17C26.8954 17 26 17.8954 26 19C26 20.1046 26.8954 21 28 21C29.1046 21 30 20.1046 30 19C30 17.8954 29.1046 17 28 17ZM24 19C24 16.7909 25.7909 15 28 15C30.2091 15 32 16.7909 32 19C32 21.2091 30.2091 23 28 23C25.7909 23 24 21.2091 24 19Z" fill="#73C23A"/>
<path fill-rule="evenodd" clip-rule="evenodd" d="M28 12C26.1622 12 24.3874 12.7717 23.0698 14.1653C21.7504 15.5609 21 17.4651 21 19.4615C21 22.9283 22.8307 26.0896 24.7725 28.4515C25.7332 29.6201 26.6961 30.5623 27.4186 31.2119C27.6373 31.4086 27.8334 31.5778 28 31.7179C28.1666 31.5778 28.3627 31.4086 28.5814 31.2119C29.3039 30.5623 30.2668 29.6201 31.2275 28.4515C33.1693 26.0896 35 22.9283 35 19.4615C35 17.4651 34.2496 15.5609 32.9302 14.1653C31.6126 12.7717 29.8378 12 28 12ZM28 33C27.405 33.8037 27.4047 33.8035 27.4044 33.8033L27.4016 33.8012L27.3953 33.7965L27.3741 33.7806C27.3563 33.7671 27.3311 33.7479 27.299 33.7231C27.2348 33.6736 27.143 33.6016 27.0276 33.5083C26.7968 33.3217 26.4708 33.0493 26.0814 32.6992C25.3039 32.0002 24.2668 30.9857 23.2275 29.7216C21.1693 27.218 19 23.6102 19 19.4615C19 16.9697 19.9354 14.5694 21.6165 12.7913C23.2994 11.0113 25.5944 10 28 10C30.4056 10 32.7006 11.0113 34.3835 12.7913C36.0646 14.5694 37 16.9697 37 19.4615C37 23.6102 34.8307 27.218 32.7725 29.7216C31.7332 30.9857 30.6961 32.0002 29.9186 32.6992C29.5292 33.0493 29.2032 33.3217 28.9724 33.5083C28.857 33.6016 28.7652 33.6736 28.701 33.7231C28.6689 33.7479 28.6437 33.7671 28.6259 33.7806L28.6047 33.7965L28.5984 33.8012L28.5964 33.8027C28.5961 33.8029 28.595 33.8037 28 33ZM28 33L28.595 33.8037C28.2415 34.0654 27.7579 34.065 27.4044 33.8033L28 33Z" fill="#73C23A"/>
<path fill-rule="evenodd" clip-rule="evenodd" d="M8 28C8 25.2386 10.2386 23 13 23H16C16.5523 23 17 23.4477 17 24C17 24.5523 16.5523 25 16 25H13C11.3431 25 10 26.3431 10 28V41C10 42.6569 11.3431 44 13 44H43C44.6569 44 46 42.6569 46 41V28C46 26.3431 44.6569 25 43 25H40C39.4477 25 39 24.5523 39 24C39 23.4477 39.4477 23 40 23H43C45.7614 23 48 25.2386 48 28V41C48 43.7614 45.7614 46 43 46H13C10.2386 46 8 43.7614 8 41V28Z" fill="#73C23A"/>
</svg>
